# xmcd
#
# Track frame offsets:
#	150
#	19418
#	38948
#	54353
#	70171
#	85883
#	102593
#	118071
#	135103
#	149641
#	165503
#	184821
#	204321
#	219693
#	235493
#	251131
#	267988
#	283546
#	300346
#	314871
#
# Disc length: 4533 seconds
#
# Revision: 1
# Processed by: cddbd v1.5.1PL0 Copyright (c) Steve Scherf et al.
# Submitted via: audiograbber 1.83.01
#
DISCID=3111b314
DTITLE=Various Artist - Top Hits Monthly Country November 1998
DYEAR=1998
DGENRE=Karaoke
TTITLE0=Garth Brooks - You Move Me (Vocal)
TTITLE1=Faith Hill - Let Me Let Go (Vocal)
TTITLE2=Ty Herndon - It Must Be Love (Vocal)
TTITLE3=Terri Clark - You're Easy On The Eyes (Vocal)
TTITLE4=Trisha Yearwood - Where Your Road Leads (Vocal)
TTITLE5=Collin Raye - Someone You Used To Know (Vocal)
TTITLE6=Kenny Chesney - I Will Stand (Vocal)
TTITLE7=Lonestar - Everything's Changed (Vocal)
TTITLE8=Black Hawk - There You Have It (Vocal)
TTITLE9=Aaron Tippin - For You I Will (Vocal)
TTITLE10=Garth Brooks - You Move Me
TTITLE11=Faith Hill - Let Me Let Go
TTITLE12=Ty Herndon - It Must Be Love 
TTITLE13=Terri Clark - You're Easy On The Eyes 
TTITLE14=Trisha Yearwood - Where Your Road Leads 
TTITLE15=Collin Raye - Someone You Used To Know 
TTITLE16=Kenny Chesney - I Will Stand 
TTITLE17=Lonestar - Everything's Changed
TTITLE18=Black Hawk - There You Have It 
TTITLE19=Aaron Tippin - For You I Will 
EXTD=
EXTT0=
EXTT1=
EXTT2=
EXTT3=
EXTT4=
EXTT5=
EXTT6=
EXTT7=
EXTT8=
EXTT9=
EXTT10=
EXTT11=
EXTT12=
EXTT13=
EXTT14=
EXTT15=
EXTT16=
EXTT17=
EXTT18=
EXTT19=
PLAYORDER=
